<svg width="22" height="22" viewBox="0 0 22 22" fill="none" xmlns="http://www.w3.org/2000/svg">
<path d="M7.00665 10.5523L8.52326 9.02649L10.2868 10.6774L15.9361 4.5928C15.9361 4.5928 16.2933 4.7482 16.8886 5.34031C17.4839 5.93243 17.722 6.36914 17.722 6.36914L10.2674 13.7839L7.00665 10.5523Z" fill="#5A50F9"/>
<path d="M19 10.986C19 15.3743 15.3845 19 11 19C6.61548 19 3 15.3751 3 10.986C3 6.62491 6.67253 3 11.0571 3C12.6255 3 14.0505 3.42439 15.2467 4.15745L13.1132 6.46023C12.4769 6.14855 11.7606 5.97423 10.9977 5.97423C8.23571 5.97423 6.12941 8.18352 6.12941 10.9868C6.12941 13.762 8.23571 16.0273 10.9977 16.0273C13.7308 16.0273 15.866 13.79 15.866 10.9868C15.866 10.4802 15.7949 9.99165 15.662 9.53131L18.0986 7.23508C18.6785 8.35788 19 9.63671 19 10.986Z" fill="#5A50F9"/>
</svg>
